HIERARCHY
ROOT Hips
{
	OFFSET -3.958830 18.904000 13.208200
	CHANNELS 6 Xposition Yposition Zposition Zrotation Yrotation Xrotation 
	JOINT LHipJoint
	{
		OFFSET 0.000000 0.000000 0.000000
		CHANNELS 3 Zrotation Yrotation Xrotation
		JOINT LeftUpLeg
		{
			OFFSET 1.800000 -1.400000 0.085000
			CHANNELS 3 Zrotation Yrotation Xrotation
			JOINT LeftLeg
			{
				OFFSET 2.215000 -6.000000 0.000000
				CHANNELS 3 Zrotation Yrotation Xrotation
				JOINT LeftFoot
				{
					OFFSET 2.500000 -6.900000 0.000000
					CHANNELS 3 Zrotation Yrotation Xrotation
					JOINT LeftToeBase
					{
						OFFSET 0.200000 -0.500000 1.950000
						CHANNELS 3 Zrotation Yrotation Xrotation
						End Site
						{
							OFFSET 0.000000 0.000000 0.000000
						}
					}
				}
			}
		}
	}
	JOINT RHipJoint
	{
		OFFSET 0.000000 0.000000 0.000000
		CHANNELS 3 Zrotation Yrotation Xrotation
		JOINT RightUpLeg
		{
			OFFSET -1.800000 -1.400000 0.085000
			CHANNELS 3 Zrotation Yrotation Xrotation
			JOINT RightLeg
			{
				OFFSET -2.215000 -6.000000 0.000000
				CHANNELS 3 Zrotation Yrotation Xrotation
				JOINT RightFoot
				{
					OFFSET -2.500000 -6.900000 0.000000
					CHANNELS 3 Zrotation Yrotation Xrotation
					JOINT RightToeBase
					{
						OFFSET -0.200000 -0.500000 1.950000
						CHANNELS 3 Zrotation Yrotation Xrotation
						End Site
						{
							OFFSET 0.000000 0.000000 0.000000
						}
					}
				}
			}
		}
	}
	JOINT LowerBack
	{
		OFFSET 0.000000 0.000000 0.000000
		CHANNELS 3 Zrotation Yrotation Xrotation
		JOINT Spine
		{
			OFFSET -0.087000 1.940000 -0.288900
			CHANNELS 3 Zrotation Yrotation Xrotation
			JOINT Spine1
			{
				OFFSET 0.000000 1.950000 0.060000
				CHANNELS 3 Zrotation Yrotation Xrotation
				JOINT Neck
				{
					OFFSET 0.000000 0.000000 0.000000
					CHANNELS 3 Zrotation Yrotation Xrotation
					JOINT Neck1
					{
						OFFSET 0.000000 1.600000 0.340000
						CHANNELS 3 Zrotation Yrotation Xrotation
						JOINT Head
						{
							OFFSET 0.000000 1.667000 -0.240000
							CHANNELS 3 Zrotation Yrotation Xrotation
							End Site
							{
								OFFSET 0.000000 0.000000 0.000000
							}
						}
					}
				}
				JOINT LeftShoulder
				{
					OFFSET 0.000000 0.000000 0.000000
					CHANNELS 3 Zrotation Yrotation Xrotation
					JOINT LeftArm
					{
						OFFSET 2.700000 1.550000 -0.730000
						CHANNELS 3 Zrotation Yrotation Xrotation
						JOINT LeftForeArm
						{
							OFFSET 5.450000 0.000000 0.000000
							CHANNELS 3 Zrotation Yrotation Xrotation
							JOINT LeftHand
							{
								OFFSET 3.450000 0.000000 0.000000
								CHANNELS 3 Zrotation Yrotation Xrotation
								JOINT LeftHandIndex1
								{
									OFFSET 0.750000 0.000000 0.000000
									CHANNELS 3 Zrotation Yrotation Xrotation
									End Site
									{
										OFFSET 0.000000 0.000000 0.000000
									}
								}
							}
						}
					}
				}
				JOINT RightShoulder
				{
					OFFSET 0.000000 0.000000 0.000000
					CHANNELS 3 Zrotation Yrotation Xrotation
					JOINT RightArm
					{
						OFFSET -2.700000 1.550000 -0.730000
						CHANNELS 3 Zrotation Yrotation Xrotation
						JOINT RightForeArm
						{
							OFFSET -5.450000 0.000000 0.000000
							CHANNELS 3 Zrotation Yrotation Xrotation
							JOINT RightHand
							{
								OFFSET -3.450000 0.000000 0.000000
								CHANNELS 3 Zrotation Yrotation Xrotation
								JOINT RightHandIndex1
								{
									OFFSET -0.750000 0.000000 0.000000
									CHANNELS 3 Zrotation Yrotation Xrotation
									End Site
									{
										OFFSET 0.000000 0.000000 0.000000
									}
								}
							}
						}
					}
				}
			}
		}
	}
}
MOTION
Frames: 13
Frame Time: 0.016667
4.204700 16.580650 -7.952900 4.489250 -35.995613 9.525471 -14.798130 10.999366 3.869624 -10.920877 -6.142493 -27.596641 -3.777026 4.850312 20.045498 -0.057616 2.514126 3.530803 0.142520 0.127170 0.142830 18.731414 -12.134890 2.829238 -5.960230 -1.417532 2.726556 7.203245 -6.361745 11.987679 -0.559016 -4.786166 2.697013 -0.024770 -0.172690 0.036010 -4.586701 3.481218 -7.411912 6.241011 12.331333 4.748262 2.045586 12.159560 9.110716 0.607199 0.346593 -14.143536 0.963580 -10.620870 32.849968 0.702170 -9.264470 -9.590850 -6.671391 -16.133494 9.991820 -64.905322 -3.286491 -9.847307 -41.789293 -42.575342 10.874741 -3.293002 3.505924 0.149470 -0.185660 0.157040 -0.011360 6.283071 21.934122 8.323831 62.666233 14.572277 3.223312 6.864709 -2.723401 0.692667 2.872922 -1.398541 0.104280 -0.024830 -0.074110 0.010260 
4.190740 16.577000 -7.937950 4.611146 -35.029791 9.212601 -14.790399 10.984349 3.862405 -10.744015 -6.162543 -27.333380 -4.281761 5.075192 20.550416 -0.046485 2.612845 3.482115 0.151340 0.127090 0.172120 18.737461 -12.126304 2.895617 -5.874878 -1.565792 4.232360 7.281744 -6.452158 11.439641 -0.622239 -4.879876 2.661860 -0.034730 -0.210730 0.032110 -4.604096 3.493257 -7.473357 6.492867 12.007134 4.694139 1.308376 11.944887 8.965124 0.998826 0.457398 -14.401651 1.059941 -10.538208 34.484827 0.578970 -9.102330 -10.406790 -7.148752 -16.315917 10.136716 -65.276316 -2.882172 -10.385571 -38.664891 -42.809382 9.765826 -3.263043 3.458701 0.191930 -0.219330 0.189470 -0.025990 5.952986 22.112220 8.518558 63.104372 14.610673 3.276041 7.002655 -2.693053 0.753556 2.877671 -1.369689 0.105040 -0.024740 -0.077710 -0.007640 
4.179960 16.555890 -7.899300 4.616719 -34.954633 9.170216 -14.739272 10.904828 3.827703 -10.940828 -6.024240 -26.773759 -4.434201 5.110290 20.399996 -0.035231 2.591100 3.494170 0.146500 0.112570 0.175590 18.785791 -12.209203 2.956070 -6.203254 -1.553751 5.934794 7.254156 -6.612172 11.310507 -0.681926 -5.049309 2.613542 -0.050850 -0.224590 0.017600 -4.752589 3.788061 -7.482336 7.078757 12.443160 4.100147 0.591445 12.454573 8.845956 1.160455 0.701047 -14.581060 1.531323 -10.646301 36.238972 1.338660 -9.526930 -10.095600 -7.190397 -15.702824 10.243463 -65.901014 -1.872786 -10.848576 -38.069967 -42.706755 9.553864 -3.223715 3.432897 0.218460 -0.244250 0.203190 -0.023910 5.647849 21.477232 8.561467 63.515248 14.372409 3.276821 6.495358 -2.464458 0.831425 2.888170 -1.346664 0.098540 -0.020870 -0.085580 -0.011010 
4.171930 16.529430 -7.872600 5.072997 -34.411653 9.188350 -14.712755 10.781296 3.834093 -11.520480 -6.087719 -26.533901 -4.498321 5.124616 20.382194 -0.016863 2.591500 3.505034 0.131730 0.099020 0.153880 18.823498 -12.264079 2.968421 -6.596824 -1.427393 7.108988 7.498698 -6.844788 11.647739 -0.709813 -5.237789 2.561088 -0.058800 -0.203030 0.016300 -4.862957 4.073069 -7.467360 7.022913 12.770501 3.523339 -0.312207 12.875390 8.763684 1.336413 1.066765 -14.486053 2.337192 -11.149799 36.430223 1.719850 -10.268430 -9.185800 -8.356902 -15.361362 10.270251 -65.475875 -1.053256 -11.157851 -36.928166 -43.317238 9.413429 -3.237483 3.416826 0.197030 -0.231140 0.186950 -0.017360 6.390840 21.111892 8.469018 62.898278 14.632588 3.789295 6.468296 -3.094381 0.862635 2.902698 -1.346613 0.100130 -0.018710 -0.080490 0.003120 
4.166080 16.501080 -7.859730 5.691065 -33.451508 9.283231 -14.726633 10.719504 3.893222 -12.359956 -6.295053 -26.704670 -3.905848 4.920066 20.361465 -0.034830 2.527487 3.527591 0.126270 0.085070 0.155790 18.824233 -12.236765 2.973490 -6.307798 -1.428197 8.065341 6.897256 -6.784632 11.656913 -0.730480 -5.288925 2.543327 -0.064800 -0.205970 0.014820 -4.841978 4.096611 -7.488814 6.599585 12.805207 3.436357 -1.060291 13.042382 8.507896 1.573525 1.059451 -14.479782 2.383274 -11.015451 36.139088 1.942460 -10.169830 -9.528420 -9.222040 -14.915950 10.311139 -65.154928 -0.057396 -11.767070 -35.854830 -44.931934 9.475574 -3.226714 3.410827 0.209830 -0.236300 0.185400 -0.024350 6.732289 20.842534 8.463497 62.411462 14.586630 3.711409 5.969601 -2.077548 0.856388 2.891059 -1.332208 0.092150 -0.020260 -0.074200 -0.005580 
4.172230 16.472280 -7.836570 5.945271 -31.306773 9.445997 -14.706533 10.588282 3.910441 -13.168655 -6.457153 -26.620412 -3.178024 4.700874 20.603647 -0.049498 2.495564 3.534568 0.132340 0.092710 0.156830 18.873197 -12.217663 3.024316 -5.676999 -1.561797 9.171089 7.543442 -7.002335 11.535599 -0.772629 -5.442330 2.485660 -0.054560 -0.206020 0.024790 -4.963802 4.277439 -7.495093 6.962418 12.630123 3.004276 -2.129217 12.933901 8.563879 1.865489 1.719680 -14.301728 3.691176 -11.783279 35.564333 1.809690 -10.610890 -9.499980 -9.919688 -14.750853 10.310455 -64.062404 0.325705 -11.602727 -36.632167 -45.709796 10.138951 -3.242806 3.425010 0.198430 -0.226900 0.179340 -0.028880 6.675121 20.215731 8.231822 62.347854 15.164480 4.355930 5.486803 -3.005359 0.909724 2.897462 -1.347253 0.097810 -0.029420 -0.069560 -0.006050 
4.165780 16.448800 -7.816000 6.243399 -29.904809 9.268867 -14.673532 10.523178 3.938071 -14.118234 -6.438507 -26.024838 -1.855558 4.268010 20.458737 -0.057500 2.366889 3.581212 0.135990 0.095590 0.162140 18.909860 -12.269564 3.062364 -5.061847 -1.620617 9.818206 7.311930 -7.063736 12.072842 -0.803802 -5.490322 2.470081 -0.060270 -0.221790 0.017310 -5.066488 4.481342 -7.535025 7.447304 12.833278 2.882852 -3.115728 13.283669 8.390342 2.095087 1.971441 -14.414834 4.112528 -12.855148 36.921098 2.045920 -11.915330 -9.793680 -10.766707 -14.762350 10.244298 -63.196598 0.496955 -11.530448 -35.257490 -45.458472 9.665557 -3.226430 3.383946 0.211560 -0.248770 0.195400 -0.029150 6.980659 20.283025 8.451951 61.912783 15.099033 4.610186 5.343354 -3.576540 0.980571 2.914215 -1.324177 0.103900 -0.020480 -0.074560 -0.001600 
4.163610 16.432230 -7.797760 7.329703 -27.180152 8.713476 -14.698472 10.457575 4.030274 -15.885711 -6.533399 -25.023027 -0.382398 3.772073 20.157378 -0.041751 2.258801 3.629412 0.123970 0.085400 0.142480 18.906448 -12.249220 3.043362 -3.688563 -1.737028 9.361503 6.778846 -6.991872 13.251632 -0.786375 -5.446812 2.484589 -0.071040 -0.211210 0.020440 -5.039012 4.522837 -7.572912 6.744089 12.732124 2.905448 -4.043646 13.355069 8.328761 2.235824 2.403256 -14.598749 4.892737 -13.580559 37.317541 2.141070 -12.824210 -8.560100 -11.389449 -15.278245 10.278575 -61.891356 0.303885 -11.428856 -34.175784 -45.960720 9.508532 -3.231610 3.392958 0.187050 -0.239420 0.184580 -0.022530 7.274975 20.609411 8.795762 61.655026 14.694803 4.544889 5.284204 -3.441691 0.972267 2.921029 -1.336451 0.114800 -0.031730 -0.074760 0.014350 
4.161010 16.433220 -7.793760 8.336648 -25.426067 8.281244 -14.733939 10.415490 4.147962 -17.930557 -6.465238 -23.289057 1.246621 3.047159 18.057745 -0.091387 1.975515 3.720689 0.131500 0.077080 0.172290 18.879297 -12.211086 3.037139 -3.154322 -1.700999 9.340092 6.133552 -6.855510 13.598782 -0.798107 -5.370922 2.495010 -0.084150 -0.260100 0.018140 -4.951765 4.483163 -7.683932 6.048044 12.546232 3.106099 -4.805841 13.330265 8.189470 2.509641 2.588290 -15.307660 5.267739 -14.074374 39.403891 1.839260 -13.192650 -9.239960 -12.113025 -16.308187 10.687613 -60.786427 1.134049 -11.863710 -33.877139 -46.200504 9.370202 -3.190947 3.365293 0.237410 -0.278400 0.217320 -0.043940 7.452203 21.769629 9.404054 61.044544 14.618244 4.535572 5.321197 -3.518749 1.038738 2.923164 -1.304565 0.115280 -0.040050 -0.073390 -0.009480 
4.153600 16.422600 -7.784470 9.482568 -22.902730 7.888365 -14.783396 10.355451 4.255153 -19.275169 -6.684486 -22.615805 1.741858 3.063807 19.483846 -0.023776 2.135084 3.654353 0.121770 0.064720 0.166900 18.844775 -12.119686 3.039627 -3.119446 -1.645132 9.549294 7.010761 -7.057331 13.438140 -0.812479 -5.401284 2.481030 -0.108730 -0.279950 0.020230 -4.839420 4.378784 -7.779303 4.944113 12.186210 3.214855 -5.147505 13.070857 7.986466 2.508835 2.648034 -15.732215 5.323846 -14.611541 40.925664 2.005170 -14.088540 -8.767260 -12.798696 -16.733214 10.990051 -60.694766 1.740704 -12.349398 -33.353853 -47.073725 9.351022 -3.160617 3.371268 0.239860 -0.296690 0.230140 -0.051760 8.148065 22.280380 9.754575 60.535249 14.107086 4.260464 3.991254 -3.710557 1.143211 2.946153 -1.293497 0.134780 -0.057970 -0.072570 -0.002320 
4.149910 16.407000 -7.785280 9.330264 -20.164854 7.989052 -14.761791 10.331702 4.246474 -19.389646 -6.652095 -22.496609 2.167915 3.015045 20.307147 -0.014903 2.215997 3.621920 0.127270 0.076280 0.173420 18.877695 -12.104630 3.088190 -1.797105 -1.874206 9.388985 7.514559 -7.205420 13.974400 -0.833929 -5.407522 2.474995 -0.104350 -0.282630 0.023650 -4.917285 4.431250 -7.807028 5.601749 11.875180 3.431255 -6.104116 12.881950 7.906787 2.779190 3.351057 -15.716032 6.715905 -15.527303 40.572323 2.402690 -14.637210 -9.525700 -12.925734 -16.695725 10.892391 -60.069157 1.436082 -12.012023 -33.887494 -47.202318 9.707904 -3.169062 3.360152 0.245980 -0.299540 0.241180 -0.054230 7.517050 21.669783 9.758009 60.486139 14.020299 4.312009 4.563190 -3.147428 1.084183 2.933848 -1.274225 0.138350 -0.049220 -0.072310 -0.001350 
4.142590 16.394110 -7.774900 9.793041 -18.464404 7.545163 -14.751854 10.301904 4.237568 -19.629154 -6.509002 -21.734635 1.930608 3.069079 20.098316 -0.016355 2.225592 3.621019 0.131890 0.081870 0.178120 18.890820 -12.140774 3.088332 -1.395498 -1.819473 9.247027 7.534715 -7.303149 14.892100 -0.845244 -5.431650 2.465096 -0.098960 -0.288380 0.011180 -4.954588 4.557874 -7.806918 5.392442 11.883547 3.438269 -6.919961 13.033611 8.040665 3.040880 3.846295 -15.900487 7.908905 -16.229962 41.539760 3.049620 -15.346490 -9.584330 -13.024899 -16.788390 10.868522 -59.796617 1.039590 -11.999639 -32.274000 -47.859846 9.296476 -3.152225 3.340646 0.258870 -0.311580 0.248230 -0.052960 7.076942 21.560843 9.933759 60.320993 14.228781 4.621174 4.941779 -3.551513 1.099232 2.938132 -1.259099 0.131510 -0.035780 -0.076420 -0.003080 
4.134380 16.375370 -7.758480 10.221721 -17.100446 7.295315 -14.745277 10.262705 4.211306 -19.765875 -6.338977 -21.063780 1.897074 3.028262 19.503974 -0.050960 2.208021 3.627918 0.128270 0.066490 0.196550 18.902654 -12.191184 3.071848 -1.247004 -1.673479 9.079524 7.546130 -7.436623 15.910047 -0.848935 -5.492047 2.435919 -0.097350 -0.291930 0.019130 -4.984776 4.731250 -7.767103 5.105316 12.037003 3.210474 -7.753101 13.252967 8.139018 3.486997 4.482996 -16.088605 9.472218 -17.008324 41.338277 2.009990 -15.288960 -9.270680 -13.656575 -16.974459 10.975119 -59.169599 1.300925 -12.188224 -31.323654 -48.856637 9.174006 -3.164962 3.327714 0.268270 -0.301340 0.247090 -0.068170 6.762418 21.541423 10.041722 60.660435 14.534729 4.918563 4.417986 -4.082255 1.152702 2.927518 -1.261289 0.119910 -0.034010 -0.064940 -0.021160 
